# 3ds Max Wavefront OBJ Exporter v0.97b - (c)2007 guruware
# File Created: 20.08.2018 14:06:19

mtllib glass.mtl

#
# object Plane001
#

v  -45.1449 -11.3713 60.9574
v  -8.5370 0.2005 60.9574
v  4.7307 0.2005 60.9574
v  17.9985 0.2005 60.9574
v  56.2939 0.2005 52.4764
v  -45.1449 -11.1681 15.1429
v  -8.5370 0.4036 15.1429
v  4.7307 0.4036 15.1429
v  17.9985 0.4036 15.1429
v  56.2939 0.4036 6.6619
v  -45.1449 -9.5516 -0.2137
v  -8.5370 2.0202 -0.2137
v  4.7307 2.0202 -0.2137
v  17.9985 2.0202 -0.2137
v  56.2939 2.0202 -8.6946
v  -45.1449 -20.8069 -19.3698
v  -8.5370 -9.2352 -19.3698
v  4.7307 -9.2352 -19.3698
v  17.9985 -9.2352 -19.3698
v  56.2939 -9.2352 -27.8507
v  -45.1449 -25.6263 -36.6261
v  -8.5370 -14.0546 -36.6261
v  4.7307 -14.0546 -36.6261
v  17.9985 -14.0546 -36.6261
v  56.2939 -14.0546 -45.1070
# 25 vertices

vn -0.3591 0.9312 0.0622
vn -0.1850 0.9805 0.0655
vn -0.1823 0.9753 0.1244
vn -0.1823 0.9753 0.1244
vn -0.3565 0.9272 0.1150
vn -0.3591 0.9312 0.0622
vn -0.1850 0.9805 0.0655
vn 0.0000 0.9978 0.0666
vn 0.0000 0.9921 0.1254
vn 0.0000 0.9921 0.1254
vn -0.1823 0.9753 0.1244
vn -0.1850 0.9805 0.0655
vn 0.0000 0.9978 0.0666
vn 0.0006 0.9978 0.0666
vn 0.0063 0.9926 0.1213
vn 0.0063 0.9926 0.1213
vn 0.0000 0.9921 0.1254
vn 0.0000 0.9978 0.0666
vn 0.0006 0.9978 0.0666
vn 0.0012 0.9978 0.0666
vn 0.0164 0.9909 0.1336
vn 0.0164 0.9909 0.1336
vn 0.0063 0.9926 0.1213
vn 0.0006 0.9978 0.0666
vn -0.3565 0.9272 0.1150
vn -0.1823 0.9753 0.1244
vn -0.1747 0.9655 -0.1929
vn -0.1747 0.9655 -0.1929
vn -0.3569 0.9121 -0.2017
vn -0.3565 0.9272 0.1150
vn -0.1823 0.9753 0.1244
vn 0.0000 0.9921 0.1254
vn 0.0000 0.9795 -0.2012
vn 0.0000 0.9795 -0.2012
vn -0.1747 0.9655 -0.1929
vn -0.1823 0.9753 0.1244
vn 0.0000 0.9921 0.1254
vn 0.0063 0.9926 0.1213
vn -0.0238 0.9842 -0.1752
vn -0.0238 0.9842 -0.1752
vn 0.0000 0.9795 -0.2012
vn 0.0000 0.9921 0.1254
vn 0.0063 0.9926 0.1213
vn 0.0164 0.9909 0.1336
vn -0.0696 0.9658 -0.2497
vn -0.0696 0.9658 -0.2497
vn -0.0238 0.9842 -0.1752
vn 0.0063 0.9926 0.1213
vn -0.3569 0.9121 -0.2017
vn -0.1747 0.9655 -0.1929
vn -0.1739 0.8917 -0.4178
vn -0.1739 0.8917 -0.4178
vn -0.3400 0.8593 -0.3820
vn -0.3569 0.9121 -0.2017
vn -0.1747 0.9655 -0.1929
vn 0.0000 0.9795 -0.2012
vn 0.0000 0.9085 -0.4179
vn 0.0000 0.9085 -0.4179
vn -0.1739 0.8917 -0.4178
vn -0.1747 0.9655 -0.1929
vn 0.0000 0.9795 -0.2012
vn -0.0238 0.9842 -0.1752
vn -0.0547 0.9031 -0.4260
vn -0.0547 0.9031 -0.4260
vn 0.0000 0.9085 -0.4179
vn 0.0000 0.9795 -0.2012
vn -0.0238 0.9842 -0.1752
vn -0.0696 0.9658 -0.2497
vn -0.1022 0.9118 -0.3976
vn -0.1022 0.9118 -0.3976
vn -0.0547 0.9031 -0.4260
vn -0.0238 0.9842 -0.1752
vn -0.3400 0.8593 -0.3820
vn -0.1739 0.8917 -0.4178
vn -0.1841 0.9467 -0.2644
vn -0.1841 0.9467 -0.2644
vn -0.3535 0.9009 -0.2516
vn -0.3400 0.8593 -0.3820
vn -0.1739 0.8917 -0.4178
vn 0.0000 0.9085 -0.4179
vn 0.0000 0.9631 -0.2690
vn 0.0000 0.9631 -0.2690
vn -0.1841 0.9467 -0.2644
vn -0.1739 0.8917 -0.4178
vn 0.0000 0.9085 -0.4179
vn -0.0547 0.9031 -0.4260
vn -0.0392 0.9624 -0.2688
vn -0.0392 0.9624 -0.2688
vn 0.0000 0.9631 -0.2690
vn 0.0000 0.9085 -0.4179
vn -0.0547 0.9031 -0.4260
vn -0.1022 0.9118 -0.3976
vn -0.0738 0.9605 -0.2683
vn -0.0738 0.9605 -0.2683
vn -0.0392 0.9624 -0.2688
vn -0.0547 0.9031 -0.4260
# 96 vertex normals

vt -1.1797 -1.1797 0.5000
vt -0.3398 -1.1797 0.5000
vt 0.5000 -1.1797 0.5000
vt 1.3398 -1.1797 0.5000
vt 2.1797 -1.1797 0.5000
vt -1.1797 -0.3398 0.5000
vt -0.3398 -0.3398 0.5000
vt 0.5000 -0.3398 0.5000
vt 1.3398 -0.3398 0.5000
vt 2.1797 -0.3398 0.5000
vt -1.1797 0.5000 0.5000
vt -0.3398 0.5000 0.5000
vt 0.5000 0.5000 0.5000
vt 1.3398 0.5000 0.5000
vt 2.1797 0.5000 0.5000
vt -1.1797 1.3398 0.5000
vt -0.3398 1.3398 0.5000
vt 0.5000 1.3398 0.5000
vt 1.3398 1.3398 0.5000
vt 2.1797 1.3398 0.5000
vt -1.1797 2.1797 0.5000
vt -0.3398 2.1797 0.5000
vt 0.5000 2.1797 0.5000
vt 1.3398 2.1797 0.5000
vt 2.1797 2.1797 0.5000
# 25 texture coords

g Plane001
usemtl Material__27
s 1
f 1/1/1 2/2/2 7/7/3 
f 7/7/4 6/6/5 1/1/6 
f 2/2/7 3/3/8 8/8/9 
f 8/8/10 7/7/11 2/2/12 
f 3/3/13 4/4/14 9/9/15 
f 9/9/16 8/8/17 3/3/18 
f 4/4/19 5/5/20 10/10/21 
f 10/10/22 9/9/23 4/4/24 
f 6/6/25 7/7/26 12/12/27 
f 12/12/28 11/11/29 6/6/30 
f 7/7/31 8/8/32 13/13/33 
f 13/13/34 12/12/35 7/7/36 
f 8/8/37 9/9/38 14/14/39 
f 14/14/40 13/13/41 8/8/42 
f 9/9/43 10/10/44 15/15/45 
f 15/15/46 14/14/47 9/9/48 
f 11/11/49 12/12/50 17/17/51 
f 17/17/52 16/16/53 11/11/54 
f 12/12/55 13/13/56 18/18/57 
f 18/18/58 17/17/59 12/12/60 
f 13/13/61 14/14/62 19/19/63 
f 19/19/64 18/18/65 13/13/66 
f 14/14/67 15/15/68 20/20/69 
f 20/20/70 19/19/71 14/14/72 
f 16/16/73 17/17/74 22/22/75 
f 22/22/76 21/21/77 16/16/78 
f 17/17/79 18/18/80 23/23/81 
f 23/23/82 22/22/83 17/17/84 
f 18/18/85 19/19/86 24/24/87 
f 24/24/88 23/23/89 18/18/90 
f 19/19/91 20/20/92 25/25/93 
f 25/25/94 24/24/95 19/19/96 
# 32 faces

