# 3ds Max Wavefront OBJ Exporter v0.97b - (c)2007 guruware
# File Created: 20.08.2018 21:02:27

mtllib floor.mtl

#
# object Plane001
#

v  -16.6444 0.0000 26.7515
v  -5.9568 0.0000 26.7515
v  4.7307 0.0000 26.7515
v  15.4183 0.0000 26.7515
v  26.1059 0.0000 26.7515
v  -16.6444 0.0000 12.3191
v  -5.9568 0.0000 12.3191
v  4.7307 0.0000 12.3191
v  15.4183 0.0000 12.3191
v  26.1059 0.0000 12.3191
v  -16.6444 0.0000 -2.1134
v  -5.9568 0.0000 -2.1134
v  4.7307 0.0000 -2.1134
v  15.4183 0.0000 -2.1134
v  26.1059 0.0000 -2.1134
v  -16.6444 0.0000 -16.5459
v  -5.9568 0.0000 -16.5459
v  4.7307 0.0000 -16.5459
v  15.4183 0.0000 -16.5459
v  26.1059 0.0000 -16.5459
v  -16.6444 0.0000 -30.9784
v  -5.9568 0.0000 -30.9784
v  4.7307 0.0000 -30.9784
v  15.4183 0.0000 -30.9784
v  26.1059 0.0000 -30.9784
# 25 vertices

vn 0.0000 1.0000 -0.0000
vn 0.0000 1.0000 -0.0000
vn 0.0000 1.0000 -0.0000
vn 0.0000 1.0000 -0.0000
vn 0.0000 1.0000 -0.0000
vn 0.0000 1.0000 -0.0000
vn 0.0000 1.0000 -0.0000
vn 0.0000 1.0000 -0.0000
vn 0.0000 1.0000 -0.0000
vn 0.0000 1.0000 -0.0000
vn 0.0000 1.0000 -0.0000
vn 0.0000 1.0000 -0.0000
vn 0.0000 1.0000 -0.0000
vn 0.0000 1.0000 -0.0000
vn 0.0000 1.0000 -0.0000
vn 0.0000 1.0000 -0.0000
vn 0.0000 1.0000 -0.0000
vn 0.0000 1.0000 -0.0000
vn 0.0000 1.0000 -0.0000
vn 0.0000 1.0000 -0.0000
vn 0.0000 1.0000 -0.0000
vn 0.0000 1.0000 -0.0000
vn 0.0000 1.0000 -0.0000
vn 0.0000 1.0000 -0.0000
vn 0.0000 1.0000 -0.0000
vn 0.0000 1.0000 -0.0000
vn 0.0000 1.0000 -0.0000
vn 0.0000 1.0000 -0.0000
vn 0.0000 1.0000 -0.0000
vn 0.0000 1.0000 -0.0000
vn 0.0000 1.0000 -0.0000
vn 0.0000 1.0000 -0.0000
vn 0.0000 1.0000 -0.0000
vn 0.0000 1.0000 -0.0000
vn 0.0000 1.0000 -0.0000
vn 0.0000 1.0000 -0.0000
vn 0.0000 1.0000 -0.0000
vn 0.0000 1.0000 -0.0000
vn 0.0000 1.0000 -0.0000
vn 0.0000 1.0000 -0.0000
vn 0.0000 1.0000 -0.0000
vn 0.0000 1.0000 -0.0000
vn 0.0000 1.0000 -0.0000
vn 0.0000 1.0000 -0.0000
vn 0.0000 1.0000 -0.0000
vn 0.0000 1.0000 -0.0000
vn 0.0000 1.0000 -0.0000
vn 0.0000 1.0000 -0.0000
vn 0.0000 1.0000 -0.0000
vn 0.0000 1.0000 -0.0000
vn 0.0000 1.0000 -0.0000
vn 0.0000 1.0000 -0.0000
vn 0.0000 1.0000 -0.0000
vn 0.0000 1.0000 -0.0000
vn 0.0000 1.0000 -0.0000
vn 0.0000 1.0000 -0.0000
vn 0.0000 1.0000 -0.0000
vn 0.0000 1.0000 -0.0000
vn 0.0000 1.0000 -0.0000
vn 0.0000 1.0000 -0.0000
vn 0.0000 1.0000 -0.0000
vn 0.0000 1.0000 -0.0000
vn 0.0000 1.0000 -0.0000
vn 0.0000 1.0000 -0.0000
vn 0.0000 1.0000 -0.0000
vn 0.0000 1.0000 -0.0000
vn 0.0000 1.0000 -0.0000
vn 0.0000 1.0000 -0.0000
vn 0.0000 1.0000 -0.0000
vn 0.0000 1.0000 -0.0000
vn 0.0000 1.0000 -0.0000
vn 0.0000 1.0000 -0.0000
vn 0.0000 1.0000 -0.0000
vn 0.0000 1.0000 -0.0000
vn 0.0000 1.0000 -0.0000
vn 0.0000 1.0000 -0.0000
vn 0.0000 1.0000 -0.0000
vn 0.0000 1.0000 -0.0000
vn 0.0000 1.0000 -0.0000
vn 0.0000 1.0000 -0.0000
vn 0.0000 1.0000 -0.0000
vn 0.0000 1.0000 -0.0000
vn 0.0000 1.0000 -0.0000
vn 0.0000 1.0000 -0.0000
vn 0.0000 1.0000 -0.0000
vn 0.0000 1.0000 -0.0000
vn 0.0000 1.0000 -0.0000
vn 0.0000 1.0000 -0.0000
vn 0.0000 1.0000 -0.0000
vn 0.0000 1.0000 -0.0000
vn 0.0000 1.0000 -0.0000
vn 0.0000 1.0000 -0.0000
vn 0.0000 1.0000 -0.0000
vn 0.0000 1.0000 -0.0000
vn 0.0000 1.0000 -0.0000
vn 0.0000 1.0000 -0.0000
# 96 vertex normals

vt -1.1797 -1.1797 0.5000
vt -0.3398 -1.1797 0.5000
vt 0.5000 -1.1797 0.5000
vt 1.3398 -1.1797 0.5000
vt 2.1797 -1.1797 0.5000
vt -1.1797 -0.3398 0.5000
vt -0.3398 -0.3398 0.5000
vt 0.5000 -0.3398 0.5000
vt 1.3398 -0.3398 0.5000
vt 2.1797 -0.3398 0.5000
vt -1.1797 0.5000 0.5000
vt -0.3398 0.5000 0.5000
vt 0.5000 0.5000 0.5000
vt 1.3398 0.5000 0.5000
vt 2.1797 0.5000 0.5000
vt -1.1797 1.3398 0.5000
vt -0.3398 1.3398 0.5000
vt 0.5000 1.3398 0.5000
vt 1.3398 1.3398 0.5000
vt 2.1797 1.3398 0.5000
vt -1.1797 2.1797 0.5000
vt -0.3398 2.1797 0.5000
vt 0.5000 2.1797 0.5000
vt 1.3398 2.1797 0.5000
vt 2.1797 2.1797 0.5000
# 25 texture coords

g Plane001
usemtl Material__27
s 1
f 6/6/1 1/1/2 7/7/3 
f 2/2/4 7/7/5 1/1/6 
f 7/7/7 2/2/8 8/8/9 
f 3/3/10 8/8/11 2/2/12 
f 8/8/13 3/3/14 9/9/15 
f 4/4/16 9/9/17 3/3/18 
f 9/9/19 4/4/20 10/10/21 
f 5/5/22 10/10/23 4/4/24 
f 11/11/25 6/6/26 12/12/27 
f 7/7/28 12/12/29 6/6/30 
f 12/12/31 7/7/32 13/13/33 
f 8/8/34 13/13/35 7/7/36 
f 13/13/37 8/8/38 14/14/39 
f 9/9/40 14/14/41 8/8/42 
f 14/14/43 9/9/44 15/15/45 
f 10/10/46 15/15/47 9/9/48 
f 16/16/49 11/11/50 17/17/51 
f 12/12/52 17/17/53 11/11/54 
f 17/17/55 12/12/56 18/18/57 
f 13/13/58 18/18/59 12/12/60 
f 18/18/61 13/13/62 19/19/63 
f 14/14/64 19/19/65 13/13/66 
f 19/19/67 14/14/68 20/20/69 
f 15/15/70 20/20/71 14/14/72 
f 21/21/73 16/16/74 22/22/75 
f 17/17/76 22/22/77 16/16/78 
f 22/22/79 17/17/80 23/23/81 
f 18/18/82 23/23/83 17/17/84 
f 23/23/85 18/18/86 24/24/87 
f 19/19/88 24/24/89 18/18/90 
f 24/24/91 19/19/92 25/25/93 
f 20/20/94 25/25/95 19/19/96 
# 32 faces

